<?xml version="1.0" encoding="UTF-8"?>
<svg version="1.1" xmlns="http://www.w3.org/2000/svg" width="492" height="507">
<path d="M0 0 C162.36 0 324.72 0 492 0 C492 167.31 492 334.62 492 507 C329.64 507 167.28 507 0 507 C0 339.69 0 172.38 0 0 Z " fill="#1C256F" transform="translate(0,0)"/>
<path d="M0 0 C0.94404489 -0.00779995 1.88808978 -0.01559991 2.86074209 -0.02363622 C6.0262506 -0.04359081 9.19056153 -0.02777763 12.3560791 -0.01205444 C14.6245443 -0.01882899 16.893004 -0.0277312 19.16145325 -0.03860474 C25.3246563 -0.06142365 31.48744146 -0.05255072 37.65065193 -0.03670931 C44.09588892 -0.02406391 50.54108976 -0.03578665 56.98632812 -0.04364014 C68.50429929 -0.05332381 80.02205651 -0.03777065 91.53999418 -0.01234345 C101.98220143 0.00999531 112.42413077 0.00611513 122.86633301 -0.01693726 C134.99395513 -0.04369789 147.12135912 -0.05365343 159.24901628 -0.03887594 C165.66829128 -0.03107459 172.08737483 -0.03005884 178.50663757 -0.04655838 C184.54125748 -0.06098538 190.57535175 -0.05101304 196.60991478 -0.0220871 C198.82668878 -0.01546692 201.0435069 -0.01738975 203.26026344 -0.02840042 C206.28258909 -0.04203007 209.30322217 -0.02497037 212.32543945 0 C213.2062737 -0.01115361 214.08710795 -0.02230722 214.99463415 -0.03379881 C219.45342882 0.03783946 221.11405329 0.18503048 224.68379974 3.1121006 C225.33684334 3.94463041 225.98988693 4.77716022 226.66271973 5.63491821 C226.99271973 5.96491821 227.32271973 6.29491821 227.66271973 6.63491821 C227.76768989 8.35251595 227.80237272 10.07444112 227.80989075 11.79522705 C227.8206237 13.47335983 227.8206237 13.47335983 227.83157349 15.18539429 C227.83426239 16.42380066 227.83695129 17.66220703 227.83972168 18.93814087 C227.84629288 20.2340213 227.85286407 21.52990173 227.8596344 22.86505127 C227.87707295 26.43145781 227.887605 29.99785091 227.89583993 33.56428957 C227.90098655 35.79273367 227.90706259 38.02117357 227.91335106 40.24961472 C227.93241547 47.22229217 227.94664106 54.19495898 227.95496303 61.16765749 C227.96472569 69.21489395 227.99101429 77.26185462 228.03146392 85.30899394 C228.06165087 91.52818268 228.07643454 97.74729252 228.07974404 103.96655309 C228.08209263 107.68086614 228.09102676 111.39488501 228.11620522 115.10911942 C228.14387351 119.25803118 228.13964695 123.40633014 228.13269043 127.55532837 C228.15190552 129.39471985 228.15190552 129.39471985 228.17150879 131.27127075 C228.13084176 137.92243872 227.75342575 142.27657258 223.66271973 147.63491821 C220.27169912 149.33042852 216.41021914 148.78286183 212.67947388 148.78208923 C211.2661931 148.78760427 211.2661931 148.78760427 209.82436121 148.79323071 C206.64759118 148.80429862 203.47085383 148.80811662 200.29406738 148.81192017 C198.02442825 148.81818237 195.75479016 148.82482895 193.4851532 148.83183289 C187.30545164 148.8492629 181.12575783 148.85979965 174.94603777 148.86803842 C171.08891572 148.87318328 167.23179609 148.87925917 163.37467575 148.88554955 C152.69969487 148.90242064 142.02471741 148.91705656 131.34972572 148.92429829 C128.57905704 148.92620824 125.80838837 148.92812856 123.03771973 148.93008423 C122.34906796 148.93056797 121.66041619 148.93105171 120.95089619 148.93155011 C109.78921641 148.93985468 98.62764366 148.96519899 87.46601065 148.99766491 C76.01211321 149.03070996 64.55829567 149.04841168 53.10434568 149.05194253 C46.67108159 149.05429863 40.23798668 149.06333196 33.80476761 149.0884037 C27.75552786 149.11159797 21.70656973 149.11595253 15.65729713 149.10564232 C13.43363702 149.10514477 11.20996345 149.11152918 8.98634529 149.12519836 C5.95719896 149.14278169 2.92907824 149.13587801 -0.10006714 149.12266541 C-1.42875732 149.13911927 -1.42875732 149.13911927 -2.78428972 149.15590554 C-8.7119117 149.0932181 -8.7119117 149.0932181 -11.85210609 146.79193401 C-14.30372188 143.23129172 -14.4675786 140.35338495 -14.49118042 136.14471436 C-14.49978088 135.00349121 -14.50838135 133.86226807 -14.51724243 132.6864624 C-14.52150238 131.43340302 -14.52576233 130.18034363 -14.53015137 128.88931274 C-14.53832886 127.57042053 -14.54650635 126.25152832 -14.55493164 124.89266968 C-14.58112205 120.51771074 -14.59645363 116.14274236 -14.61071777 111.76773071 C-14.61607818 110.26122914 -14.62145569 108.75472762 -14.62685013 107.24822617 C-14.64847211 100.98248944 -14.66720965 94.71675526 -14.67847252 88.45099068 C-14.69471922 79.4720507 -14.72792171 70.49354291 -14.78487337 61.51476586 C-14.82355972 55.20045435 -14.84310347 48.88625851 -14.84839308 42.57183158 C-14.85204764 38.80053061 -14.86407938 35.02969091 -14.89649582 31.25851822 C-14.92655518 27.71085616 -14.93289665 24.163935 -14.92111206 20.61617279 C-14.92078591 18.69552175 -14.94526458 16.77491657 -14.9704895 14.85443115 C-14.96217102 13.70756836 -14.95385254 12.56070557 -14.94528198 11.37908936 C-14.94859213 10.38468401 -14.95190228 9.39027866 -14.95531273 8.36573982 C-13.10998569 0.21202731 -7.03973206 -0.08914097 0 0 Z " fill="#FDFEFE" transform="translate(69.3372802734375,138.36508178710938)"/>
<path d="M0 0 C0.69945236 -0.0065712 1.39890472 -0.0131424 2.11955261 -0.01991272 C4.44021715 -0.0396613 6.76081676 -0.05131481 9.08154297 -0.0612793 C9.87510067 -0.06535482 10.66865837 -0.06943035 11.48626328 -0.07362938 C15.69054657 -0.09450177 19.89479717 -0.10879556 24.09912109 -0.11816406 C28.43006393 -0.12920076 32.76048903 -0.16356507 37.09124947 -0.20333576 C40.43027663 -0.22956476 43.76918196 -0.23786168 47.10830307 -0.24144554 C48.70381013 -0.24629926 50.2993122 -0.25787851 51.89471817 -0.27648354 C67.67463951 -0.44898942 67.67463951 -0.44898942 74.19873047 4.17700195 C76.25195312 6.32666016 76.25195312 6.32666016 77.73779297 8.6652832 C78.3065918 9.54522949 78.87539063 10.42517578 79.46142578 11.33178711 C80.03473633 12.27070801 80.60804688 13.20962891 81.19873047 14.17700195 C81.79524414 15.13783691 82.39175781 16.09867188 83.00634766 17.08862305 C84.88991226 20.16477881 86.73619483 23.26065319 88.57373047 26.36450195 C89.23002441 27.46584473 89.88631836 28.5671875 90.5625 29.7019043 C91.86064247 31.88041466 93.15740426 34.05974847 94.45263672 36.23999023 C96.6487369 39.93393391 98.85945352 43.61893811 101.07373047 47.30200195 C101.75177734 48.43250977 102.42982422 49.56301758 103.12841797 50.7277832 C104.65243887 53.2680644 106.17907359 55.80676167 107.70654297 58.3449707 C108.33133545 59.38403564 108.33133545 59.38403564 108.96875 60.4440918 C109.7685988 61.77420956 110.56902336 63.10398132 111.37011719 64.43334961 C114.61518862 69.83200851 115.34753091 73.08681172 115.34399414 79.34277344 C115.34735275 80.18680725 115.35071136 81.03084106 115.35417175 81.90045166 C115.36369624 84.69968118 115.36562558 87.49885098 115.36669922 90.2980957 C115.36991064 92.23861211 115.37327463 94.17912827 115.37678528 96.11964417 C115.38278022 100.19093385 115.38462479 104.2622023 115.3840332 108.33349609 C115.38393153 113.55707269 115.39758708 118.78051349 115.41480541 124.00405788 C115.42590931 128.01284921 115.42795291 132.02160754 115.42742348 136.03041267 C115.4286059 137.95657889 115.43304228 139.88274589 115.44075584 141.80889702 C115.45052374 144.49997417 115.44769046 147.19075428 115.44165039 149.88183594 C115.4472699 150.68142227 115.4528894 151.48100861 115.4586792 152.30482483 C115.43679075 156.13128377 115.37321194 157.91527974 113.19873047 161.17700195 C110.25741156 162.15744159 108.37371382 162.29321397 105.31201172 162.2746582 C104.37421875 162.27143555 103.43642578 162.26821289 102.47021484 162.26489258 C101.49375 162.25651367 100.51728516 162.24813477 99.51123047 162.23950195 C98.52316406 162.23499023 97.53509766 162.23047852 96.51708984 162.22583008 C94.07757573 162.21404499 91.63818358 162.19759207 89.19873047 162.17700195 C88.97958984 161.34297852 88.76044922 160.50895508 88.53466797 159.6496582 C85.10770578 147.48812165 79.84414371 138.15306423 68.64013672 131.7043457 C66.18418163 130.45264794 63.72571351 129.27766178 61.19873047 128.17700195 C60.43173828 127.80833008 59.66474609 127.4396582 58.87451172 127.05981445 C50.01005227 124.13518988 37.61614713 125.48949589 29.19873047 129.17700195 C19.15725522 134.90864048 11.25904689 142.19741971 7.19873047 153.17700195 C6.53873047 156.14700195 5.87873047 159.11700195 5.19873047 162.17700195 C-25.82126953 162.17700195 -56.84126953 162.17700195 -88.80126953 162.17700195 C-90.12126953 157.88700195 -91.44126953 153.59700195 -92.80126953 149.17700195 C-99.32573124 137.61091075 -108.15653303 130.9704229 -120.80126953 127.17700195 C-120.80126953 126.84700195 -120.80126953 126.51700195 -120.80126953 126.17700195 C-85.16126953 126.17700195 -49.52126953 126.17700195 -12.80126953 126.17700195 C-12.84767578 117.57250977 -12.89408203 108.96801758 -12.94189453 100.1027832 C-12.96492697 93.96438139 -12.98543272 87.82601198 -13.002285 81.68759441 C-13.0244608 73.73287612 -13.05262532 65.77832538 -13.10302734 57.82373047 C-13.14291027 51.52628547 -13.16870588 45.22896683 -13.17762351 38.93139905 C-13.18283594 35.59714018 -13.19717663 32.26332687 -13.22418976 28.92916298 C-13.25315935 25.20597381 -13.25722805 21.48353736 -13.25537109 17.76025391 C-13.2697522 16.65614166 -13.2841333 15.55202942 -13.2989502 14.41445923 C-13.25850149 6.93644906 -13.25850149 6.93644906 -10.89788818 3.01554871 C-7.24121067 -0.19102992 -4.81121806 0.03734439 0 0 Z " fill="#FCFCFC" transform="translate(323.80126953125,174.822998046875)"/>
<path d="M0 0 C0.90796829 -0.01606293 1.81593658 -0.03212585 2.75141907 -0.04867554 C6.91304934 -0.09298271 11.07451727 -0.13419703 15.23632812 -0.15722656 C17.43337596 -0.17378845 19.63036987 -0.20108134 21.82714844 -0.23925781 C24.98815987 -0.29394248 28.14790582 -0.31588866 31.30932617 -0.33056641 C32.29173782 -0.35323578 33.27414948 -0.37590515 34.28633118 -0.39926147 C41.10127948 -0.37809042 41.10127948 -0.37809042 44.21191406 2.45898438 C44.96202759 3.8122583 44.96202759 3.8122583 45.72729492 5.19287109 C46.1882959 5.89702148 46.64929688 6.60117188 47.12426758 7.32666016 C47.54240723 8.03016602 47.96054687 8.73367187 48.39135742 9.45849609 C48.86919678 10.25819824 49.34703613 11.05790039 49.83935547 11.88183594 C50.33862549 12.72697754 50.83789551 13.57211914 51.35229492 14.44287109 C51.87283447 15.32023926 52.39337402 16.19760742 52.9296875 17.1015625 C54.00264947 18.91087092 55.07434086 20.72093341 56.14477539 22.53173828 C57.64647164 25.0569603 59.16902428 27.56810438 60.69995117 30.07568359 C61.60502058 31.573006 62.50997446 33.07039824 63.41479492 34.56787109 C63.83647949 35.25010742 64.25816406 35.93234375 64.69262695 36.63525391 C66.97499718 40.44649823 68.54596252 43.63941306 68.72729492 48.19287109 C65.90063901 51.019527 64.06567568 50.44655074 60.10620117 50.45166016 C59.42637177 50.45516479 58.74654236 50.45866943 58.04611206 50.46228027 C55.79390316 50.47109891 53.54200715 50.46524815 51.28979492 50.45849609 C49.72802673 50.45984271 48.16625894 50.46178321 46.60449219 50.46429443 C43.32930515 50.46724587 40.05422711 50.46294749 36.77905273 50.45361328 C32.57545802 50.44221867 28.37211867 50.44877805 24.16853333 50.46075821 C20.9429735 50.46797632 17.71747447 50.46568912 14.49191284 50.46050262 C12.94172129 50.45916599 11.39152427 50.46081433 9.84133911 50.46546173 C7.67687299 50.47052625 5.51282365 50.46281819 3.34838867 50.45166016 C1.4987854 50.44927338 1.4987854 50.44927338 -0.38818359 50.44683838 C-3.27270508 50.19287109 -3.27270508 50.19287109 -5.27270508 48.19287109 C-5.51994324 46.17478943 -5.51994324 46.17478943 -5.515625 43.66723633 C-5.51870163 42.72963974 -5.52177826 41.79204315 -5.52494812 40.82603455 C-5.5177626 39.81142654 -5.51057709 38.79681854 -5.50317383 37.75146484 C-5.50271561 36.7134523 -5.50225739 35.67543976 -5.50178528 34.60597229 C-5.49876091 32.40942239 -5.49086913 30.21287467 -5.47851562 28.01635742 C-5.46026187 24.64087387 -5.45800587 21.26566446 -5.45825195 17.89013672 C-5.45333685 15.76057704 -5.44750857 13.63101923 -5.44067383 11.50146484 C-5.439561 10.48483261 -5.43844818 9.46820038 -5.43730164 8.42076111 C-5.43092178 7.48631668 -5.42454193 6.55187225 -5.41796875 5.58911133 C-5.41415695 4.7624144 -5.41034515 3.93571747 -5.40641785 3.08396912 C-5.1505315 -0.53502834 -3.15270213 0.05049828 0 0 Z " fill="#20236E" transform="translate(342.272705078125,199.80712890625)"/>
<path d="M0 0 C1.05054565 0.00531738 1.05054565 0.00531738 2.12231445 0.01074219 C8.26590222 0.20710932 12.31967995 1.80771622 17.125 5.5 C18.48625 6.3971875 18.48625 6.3971875 19.875 7.3125 C25.93660444 13.20572654 29.13414455 20.3353247 29.5 28.75 C29.29818714 37.49918083 26.08637168 44.3953823 20.125 50.7421875 C13.42519913 56.63068436 6.54809107 58.866307 -2.23046875 58.69921875 C-11.56340748 57.99614656 -17.79882964 53.48653735 -23.875 46.5 C-28.88619377 39.0843321 -30.3343076 31.30833865 -28.875 22.5 C-25.7388496 13.02312371 -20.50656441 6.35287634 -11.61328125 1.84765625 C-7.64336156 0.41649398 -4.17107929 -0.03818841 0 0 Z " fill="#F8F8F9" transform="translate(370.875,313.5)"/>
<path d="M0 0 C4.37131157 2.34414347 7.85719347 5.31558718 11.12890625 9.0546875 C11.83015625 9.8178125 12.53140625 10.5809375 13.25390625 11.3671875 C17.73775841 17.79404226 19.13934868 24.28117018 18.12890625 32.0546875 C16.10283164 40.70168449 12.2525563 47.58410697 4.81640625 52.62109375 C-3.23422722 57.26874564 -11.24995649 58.53112969 -20.37109375 56.1171875 C-26.97322319 53.61940141 -32.74560716 48.61208084 -36.35546875 42.5703125 C-37.32641999 40.41733367 -38.15325185 38.30302252 -38.87109375 36.0546875 C-39.36609375 34.5696875 -39.36609375 34.5696875 -39.87109375 33.0546875 C-40.68429509 23.37446388 -39.05059281 15.69775213 -32.87109375 8.0546875 C-23.41846479 -0.36932517 -12.51685855 -4.12119696 0 0 Z " fill="#F8F8F9" transform="translate(203.87109375,314.9453125)"/>
<path d="M0 0 C0.70181396 0.00572021 1.40362793 0.01144043 2.12670898 0.01733398 C10.31307515 0.29844749 15.07515045 3.44278487 20.9375 8.8125 C27.95877781 16.50324849 28.92226443 23.29824246 28.5078125 33.4921875 C28.1601856 38.23871586 27.04183022 41.71084672 24.125 45.5 C23.70089844 46.10972656 23.27679688 46.71945312 22.83984375 47.34765625 C18.14763204 53.50373346 11.77712358 57.32275022 4.125 58.5 C-3.58070114 59.23119792 -10.18306124 58.17910601 -16.5234375 53.578125 C-23.21242576 47.88954261 -28.15719899 41.8148317 -29.18359375 32.78515625 C-29.57068433 23.10789173 -27.4180748 15.66717397 -20.94140625 8.30078125 C-14.82887787 2.61720223 -8.40949969 -0.08001331 0 0 Z " fill="#F9F9FA" transform="translate(119.875,313.5)"/>
<path d="M0 0 C1.05833542 0.00707474 2.11667084 0.01414948 3.20707703 0.0214386 C6.58018312 0.04937906 9.95161621 0.11212004 13.32421875 0.17578125 C15.61390828 0.20086443 17.90362389 0.22367756 20.19335938 0.24414062 C25.8000479 0.29920444 31.40576379 0.38282795 37.01171875 0.48828125 C34.86593887 2.63406113 33.20015094 3.38203461 30.44921875 4.61328125 C20.28431926 9.66643733 13.57055916 17.06987864 9.01171875 27.48828125 C8.22024185 30.46684619 7.58067392 33.45988998 7.01171875 36.48828125 C3.92888432 36.63382471 0.84693436 36.72241946 -2.23828125 36.80078125 C-3.11097656 36.84267578 -3.98367187 36.88457031 -4.8828125 36.92773438 C-5.72714844 36.94384766 -6.57148437 36.95996094 -7.44140625 36.9765625 C-8.21645508 37.00274658 -8.99150391 37.02893066 -9.79003906 37.0559082 C-13.17285632 36.18240197 -14.19257111 34.40502722 -15.98828125 31.48828125 C-16.78690784 27.18410424 -16.59151432 22.8587001 -16.55078125 18.48828125 C-16.57462891 17.31265625 -16.59847656 16.13703125 -16.62304688 14.92578125 C-16.62111328 13.79140625 -16.61917969 12.65703125 -16.6171875 11.48828125 C-16.6179126 10.45703125 -16.6186377 9.42578125 -16.61938477 8.36328125 C-14.64286169 -0.64079446 -7.62150188 -0.19204864 0 0 Z " fill="#FBFCFC" transform="translate(70.98828125,300.51171875)"/>
<path d="M0 0 C0.33 0 0.66 0 1 0 C1 10.89 1 21.78 1 33 C-11.21 33 -23.42 33 -36 33 C-32.8746358 30.49970864 -30.13596774 28.38888791 -26.8125 26.3125 C-16.99949348 19.81931658 -8.28957889 11.17086099 -1.30859375 1.70703125 C-0.87675781 1.14371094 -0.44492187 0.58039063 0 0 Z " fill="#FCFCFD" transform="translate(491,474)"/>
<path d="M0 0 C12.21 0 24.42 0 37 0 C37 10.89 37 21.78 37 33 C33.78493958 29.78493958 30.78114132 26.65864632 27.8125 23.25 C20.1829433 14.77830113 12.30386718 8.24151162 2.4921875 2.53125 C1.66976563 2.0259375 0.84734375 1.520625 0 1 C0 0.67 0 0.34 0 0 Z " fill="#FCFCFD" transform="translate(455,0)"/>
<path d="M0 0 C3.37011861 3.37011861 6.46424903 6.664207 9.5625 10.25 C16.92386429 18.39028659 25.69777733 24.27555528 35 30 C35 30.33 35 30.66 35 31 C23.45 31 11.9 31 0 31 C0 20.77 0 10.54 0 0 Z " fill="#FCFCFD" transform="translate(0,476)"/>
<path d="M0 0 C11.55 0 23.1 0 35 0 C32.34496868 2.65503132 30.31006909 4.08033064 27.125 5.9375 C17.36702081 12.05888482 8.8792639 20.08934446 2.171875 29.453125 C1.78515625 29.96359375 1.3984375 30.4740625 1 31 C0.67 31 0.34 31 0 31 C0 20.77 0 10.54 0 0 Z " fill="#FCFCFD" transform="translate(0,0)"/>
<path d="M0 0 C16.83 0 33.66 0 51 0 C48.85422012 2.14577988 47.18843219 2.89375336 44.4375 4.125 C37.07881281 7.71382429 31.71040132 13.25118791 26 19 C25.53851563 18.41992188 25.07703125 17.83984375 24.6015625 17.2421875 C17.71080742 8.98962311 10.13411096 4.37803699 0 1 C0 0.67 0 0.34 0 0 Z " fill="#F7F7F8" transform="translate(130,301)"/>
<path d="M0 0 C2.93781806 1.55162429 5.05514124 3.30007843 7 6 C8.3068477 10.45034624 7.31248453 13.40735693 5.1875 17.4375 C2.29689162 20.82364125 0.57165204 20.92502924 -3.8125 21.5 C-6.47633469 21.47045655 -7.68391034 21.23024636 -9.85546875 19.6484375 C-12.47082224 16.82808006 -13.85000772 14.73496215 -14.625 10.9375 C-12.91989954 2.92352786 -8.09585279 -1.07944704 0 0 Z " fill="#202D70" transform="translate(123,332)"/>
<path d="M0 0 C3.95403662 0.26360244 5.65370756 0.86143155 8.75 3.25 C11.4290573 7.26858595 11.44610694 10.52641721 10.75 15.25 C8.95606332 18.12029869 7.76736724 19.74131638 4.75 21.25 C1.66691431 21.72851428 -1.17260124 21.79119771 -4.25 21.25 C-7.57983304 18.59972472 -8.85097417 17.12970848 -9.72265625 13.0234375 C-10.01250863 8.57903427 -9.69223316 6.79428697 -6.8125 3.25 C-5.966875 2.59 -5.12125 1.93 -4.25 1.25 C-3.25 0.25 -3.25 0.25 0 0 Z " fill="#271F67" transform="translate(370.25,331.75)"/>
<path d="M0 0 C3.38203976 0.06093765 5.24296492 0.65501981 7.8125 2.875 C10.66877478 6.16830043 11.06967732 9.04047126 10.78125 13.31640625 C10.0856736 16.46388946 8.62972541 18.25658196 6.3125 20.4375 C2.80406125 22.19171937 -0.86814495 22.10917968 -4.6875 21.4375 C-8.01733304 18.78722472 -9.28847417 17.31720848 -10.16015625 13.2109375 C-10.45000863 8.76653427 -10.12973316 6.98178697 -7.25 3.4375 C-6.404375 2.7775 -5.55875 2.1175 -4.6875 1.4375 C-3.6875 0.4375 -3.6875 0.4375 0 0 Z " fill="#232B70" transform="translate(192.6875,331.5625)"/>
<path d="M0 0 C1.05833542 0.00707474 2.11667084 0.01414948 3.20707703 0.0214386 C6.58018312 0.04937906 9.95161621 0.11212004 13.32421875 0.17578125 C15.61390828 0.20086443 17.90362389 0.22367756 20.19335938 0.24414062 C25.8000479 0.29920444 31.40576379 0.38282795 37.01171875 0.48828125 C33.86929037 2.58323351 33.25194023 2.72879821 29.69555664 2.65185547 C28.82778091 2.63879364 27.96000519 2.62573181 27.06593323 2.61227417 C26.13151901 2.58940338 25.1971048 2.56653259 24.234375 2.54296875 C22.25716843 2.51767788 20.27995452 2.49295583 18.30273438 2.46875 C15.18409418 2.41907994 12.06583369 2.36310186 8.94750977 2.29638672 C5.93894003 2.2360109 2.93085695 2.2004456 -0.078125 2.16796875 C-1.01051498 2.1410495 -1.94290497 2.11413025 -2.90354919 2.08639526 C-8.02115632 2.02477319 -8.02115632 2.02477319 -12.56958008 4.14208984 C-14.32874043 7.05131907 -14.52842597 8.95537257 -14.59765625 12.34765625 C-14.62988281 13.46269531 -14.66210938 14.57773437 -14.6953125 15.7265625 C-14.70949219 16.88542969 -14.72367188 18.04429687 -14.73828125 19.23828125 C-14.76792969 20.41261719 -14.79757813 21.58695312 -14.828125 22.796875 C-14.89878852 25.69407947 -14.95150391 28.5904808 -14.98828125 31.48828125 C-15.31828125 31.48828125 -15.64828125 31.48828125 -15.98828125 31.48828125 C-16.13370092 27.25947714 -16.22239652 23.03131712 -16.30078125 18.80078125 C-16.34267578 17.60259766 -16.38457031 16.40441406 -16.42773438 15.16992188 C-16.44384766 14.01298828 -16.45996094 12.85605469 -16.4765625 11.6640625 C-16.50274658 10.60098877 -16.52893066 9.53791504 -16.5559082 8.44262695 C-14.80643044 -0.66293451 -7.59328482 -0.19133762 0 0 Z " fill="#B5BAC9" transform="translate(70.98828125,300.51171875)"/>
<path d="M0 0 C16.83 0 33.66 0 51 0 C46.46478812 2.26760594 43.19922994 2.17128989 38.296875 1.9765625 C37.45908508 1.95153656 36.62129517 1.92651062 35.75811768 1.90072632 C33.08832251 1.81870568 30.41928704 1.72204751 27.75 1.625 C25.9375308 1.56674206 24.12503063 1.50943917 22.3125 1.453125 C17.87456488 1.31315369 13.43725436 1.16005494 9 1 C9.33 1.99 9.66 2.98 10 4 C6.7 3.01 3.4 2.02 0 1 C0 0.67 0 0.34 0 0 Z " fill="#B7BBCB" transform="translate(130,301)"/>
<path d="M0 0 C0.99 0.33 1.98 0.66 3 1 C2.01 2.485 2.01 2.485 1 4 C0.6742279 6.07736917 0.6742279 6.07736917 0.68115234 8.37963867 C0.66128265 9.26032516 0.64141296 10.14101166 0.62094116 11.04838562 C0.60938995 11.99534805 0.59783875 12.94231049 0.5859375 13.91796875 C0.56657135 14.89034988 0.5472052 15.86273102 0.5272522 16.86457825 C0.4674445 19.97212944 0.4210661 23.07971765 0.375 26.1875 C0.33682133 28.293636 0.29776967 30.39975637 0.2578125 32.50585938 C0.16174189 37.67044605 0.07771509 42.83510582 0 48 C-0.33 48 -0.66 48 -1 48 C-1.02526945 41.3247966 -1.04283268 34.64960543 -1.05493164 27.97436523 C-1.05997325 25.70157409 -1.06680637 23.4287862 -1.07543945 21.15600586 C-1.08751261 17.89696449 -1.09322987 14.63796583 -1.09765625 11.37890625 C-1.10281754 10.35599991 -1.10797882 9.33309357 -1.11329651 8.27919006 C-1.11337204 7.33829025 -1.11344757 6.39739044 -1.11352539 5.42797852 C-1.115746 4.59524918 -1.11796661 3.76251984 -1.12025452 2.90455627 C-1 1 -1 1 0 0 Z " fill="#2D3168" transform="translate(338,200)"/>
<path d="M0 0 C0.99 0.33 1.98 0.66 3 1 C2.35256836 1.53915039 1.70513672 2.07830078 1.03808594 2.63378906 C-1.48889437 5.56760473 -1.53130006 7.03370318 -1.609375 10.859375 C-1.64160156 11.97441406 -1.67382812 13.08945312 -1.70703125 14.23828125 C-1.72121094 15.39714844 -1.73539063 16.55601562 -1.75 17.75 C-1.77964844 18.92433594 -1.80929688 20.09867187 -1.83984375 21.30859375 C-1.91050727 24.20579822 -1.96322266 27.10219955 -2 30 C-2.33 30 -2.66 30 -3 30 C-3.08708752 25.7501291 -3.14042181 21.50048761 -3.1875 17.25 C-3.21263672 16.0434375 -3.23777344 14.836875 -3.26367188 13.59375 C-3.27333984 12.43359375 -3.28300781 11.2734375 -3.29296875 10.078125 C-3.3086792 9.00981445 -3.32438965 7.94150391 -3.34057617 6.84082031 C-2.96029894 3.66884478 -2.12893092 2.32782758 0 0 Z " fill="#C9CED9" transform="translate(58,302)"/>
<path d="M0 0 C0.66 0.33 1.32 0.66 2 1 C-1.63 4.63 -5.26 8.26 -9 12 C-9 7.8407692 -6.75316432 5.85455565 -4 3 C-1.6875 1.125 -1.6875 1.125 0 0 Z " fill="#D9DBE2" transform="translate(105,317)"/>
<path d="M0 0 C0.66 0 1.32 0 2 0 C0.34908222 4.29238623 -2.73754566 6.8793915 -6 10 C-6.66 9.67 -7.32 9.34 -8 9 C-6.85459775 7.68712379 -5.70866567 6.37470979 -4.5625 5.0625 C-3.92441406 4.33160156 -3.28632812 3.60070312 -2.62890625 2.84765625 C-1.77458541 1.87860647 -0.91348825 0.91348825 0 0 Z " fill="#303C72" transform="translate(93,309)"/>
<path d="M0 0 C0.99 0.33 1.98 0.66 3 1 C0.03 3.97 -2.94 6.94 -6 10 C-6.33 9.01 -6.66 8.02 -7 7 C-4.69 4.69 -2.38 2.38 0 0 Z " fill="#262363" transform="translate(344,309)"/>
<path d="M0 0 C0.99 0.33 1.98 0.66 3 1 C0.36 3.64 -2.28 6.28 -5 9 C-5.66 8.67 -6.32 8.34 -7 8 C-4.69 5.36 -2.38 2.72 0 0 Z " fill="#303A71" transform="translate(165,310)"/>
<path d="M0 0 C0.66 0.66 1.32 1.32 2 2 C-1.3 2 -4.6 2 -8 2 C-8.33 2.99 -8.66 3.98 -9 5 C-9.66 4.34 -10.32 3.68 -11 3 C-7.49767764 -0.36222947 -4.74066269 -0.43895025 0 0 Z " fill="#4B5580" transform="translate(123,332)"/>
<path d="M0 0 C0.66 0.33 1.32 0.66 2 1 C-0.31 3.64 -2.62 6.28 -5 9 C-5.33 8.34 -5.66 7.68 -6 7 C-4.02 4.69 -2.04 2.38 0 0 Z " fill="#D9DBE2" transform="translate(174,320)"/>
</svg>
